<?xml version="1.0" encoding="utf-8"?>
<svg width="40.62799px" height="47.99585px" viewBox="0 0 40.62799 47.99585" version="1.1" xmlns:xlink="http://www.w3.org/1999/xlink" xmlns="http://www.w3.org/2000/svg">
  <path d="M7.07151 16.0808L33.5593 16.0808L33.5593 35.2967C33.5671 37.0406 32.1613 38.4616 30.4174 38.4725L28.2465 38.4725L28.2465 45.0218C28.247 46.0842 27.6806 47.066 26.7606 47.5974C25.8407 48.1287 24.7072 48.1287 23.7872 47.5974C22.8673 47.066 22.3008 46.0842 22.3014 45.0218L22.3014 38.4725L18.3266 38.4725L18.3266 45.0218C18.3266 46.6647 16.9942 47.9915 15.3484 47.9915C13.718 47.9791 12.4037 46.6522 12.4069 45.0218L12.3815 38.4725L10.2445 38.4725C9.40203 38.474 8.59366 38.1398 7.9982 37.5438C7.40274 36.9478 7.06925 36.1392 7.07151 35.2967L7.07151 16.0808L7.07151 16.0808ZM2.97257 15.5331C1.34102 15.5284 0.0124245 16.8432 0 18.4747L0 30.8844C0 32.5302 1.32961 33.8541 2.97257 33.8541C4.61553 33.8541 5.91409 32.5273 5.91409 30.8844L5.91409 18.4747C5.91409 16.8628 4.59295 15.5331 2.97257 15.5331L2.97257 15.5331ZM33.644 15.042L6.95577 15.042C6.95577 10.4547 9.69968 6.4715 13.7676 4.39661L11.7153 0.619507C11.6573 0.523743 11.64 0.408813 11.667 0.300232C11.694 0.191589 11.7632 0.0982056 11.8592 0.0407715C12.0597 -0.0467529 12.3222 0.00970459 12.4379 0.21582L14.5128 4.02399C16.2772 3.242 18.2391 2.81012 20.314 2.81012C22.3889 2.81012 24.3508 3.242 26.1152 4.02118L28.19 0.212952C28.3058 0.00970459 28.5683 -0.0467529 28.7687 0.0379639C28.8648 0.0953979 28.934 0.188782 28.961 0.297363C28.988 0.406006 28.9707 0.520874 28.9127 0.616638L26.8604 4.3938C30.9029 6.4715 33.644 10.4547 33.644 15.042L33.644 15.042ZM15.3484 9.09967C15.35 8.47913 14.8482 7.97485 14.2277 7.97327C13.6154 7.9856 13.1264 8.48724 13.1296 9.09967C13.1296 9.70374 13.6179 10.2232 14.2277 10.2232C14.5254 10.2232 14.8109 10.1047 15.0212 9.89392C15.2314 9.68317 15.3492 9.3974 15.3484 9.09967L15.3484 9.09967ZM27.4984 9.09967C27.5016 8.48724 27.0126 7.98566 26.4003 7.97327C25.779 7.97327 25.2754 8.47693 25.2754 9.09821C25.2753 9.71954 25.779 10.2232 26.4003 10.2232C27.0128 10.2139 27.5031 9.71222 27.4984 9.09967L27.4984 9.09967ZM37.6554 15.5331C36.8748 15.5317 36.1258 15.8411 35.5738 16.3931C35.0218 16.945 34.7124 17.6941 34.7139 18.4747L34.7139 30.8844C34.7139 32.5175 36.0378 33.8414 37.6709 33.8414C39.3041 33.8414 40.628 32.5176 40.628 30.8844L40.628 18.4747C40.6265 17.6895 40.3118 16.9374 39.7537 16.3853C39.1957 15.8331 38.4403 15.5264 37.6553 15.5331L37.6554 15.5331Z" id="android" fill="#FFFFFF" fill-rule="evenodd" stroke="none" />
</svg>