<?xml version="1.0" encoding="utf-8"?>
<svg width="40.18268px" height="48px" viewBox="0 0 40.18268 48" version="1.1" xmlns:xlink="http://www.w3.org/1999/xlink" xmlns="http://www.w3.org/2000/svg">
  <path d="M40.1827 35.0481C39.4327 37.4519 38.25 39.8558 36.6346 42.2596C34.1538 46.0289 31.6827 47.9135 29.2212 47.9135C28.2788 47.9135 26.9327 47.6058 25.1827 46.9904C23.5288 46.375 22.0769 46.0673 20.8269 46.0673C19.6538 46.0673 18.2885 46.3846 16.7308 47.0192C15.1731 47.6731 13.9038 48 12.9231 48C10 48 7.10577 45.5096 4.24039 40.5289C1.41345 35.5096 0 30.6731 0 26.0192C0 21.6346 1.08655 18.0385 3.25961 15.2308C5.41345 12.4615 8.14423 11.0769 11.4519 11.0769C12.8365 11.0769 14.5385 11.3654 16.5577 11.9423C18.5577 12.5192 19.8846 12.8077 20.5385 12.8077C21.4038 12.8077 22.7788 12.4808 24.6635 11.8269C26.625 11.1731 28.2885 10.8461 29.6538 10.8461C31.9423 10.8461 33.9904 11.4711 35.7981 12.7211C36.7981 13.4135 37.7981 14.375 38.7981 15.6058C37.2788 16.8942 36.1827 18.0289 35.5096 19.0096C34.2596 20.8173 33.6346 22.8077 33.6346 24.9808C33.6346 27.3654 34.2981 29.5096 35.625 31.4135C36.9519 33.3173 38.4712 34.5289 40.1827 35.0481L40.1827 35.0481ZM29.3365 1.21155C29.3365 2.38464 29.0577 3.69232 28.5 5.13464C27.9231 6.5769 27.0288 7.90387 25.8173 9.11536C24.7788 10.1539 23.7404 10.8461 22.7019 11.1923C21.9904 11.4039 20.9904 11.5673 19.7019 11.6827C19.7596 8.81732 20.5096 6.34613 21.9519 4.26923C23.375 2.21155 25.7788 0.788452 29.1635 0C29.1827 0.0576782 29.2067 0.163452 29.2356 0.317322C29.2644 0.47113 29.2885 0.576904 29.3077 0.634644C29.3077 0.711548 29.3558 0.807678 29.4519 0.923096C29.5481 1.03845 29.5962 1.13464 29.5962 1.21155L29.3365 1.21155Z" id="apple" fill="#FFFFFF" fill-rule="evenodd" stroke="none" />
</svg>