<?xml version="1.0" encoding="utf-8"?>
<svg width="43.803345px" height="48px" viewBox="0 0 43.803345 48" version="1.1" xmlns:xlink="http://www.w3.org/1999/xlink" xmlns="http://www.w3.org/2000/svg">
  <g id="setting_billimg2">
    <g id="Group" transform="translate(4.863739E-05 -1.21593475E-05)">
      <path d="M20.3279 22.9508L0.131148 44.0656C0.131148 44.0656 0.131148 44.0656 0.131148 44.0656C0.786886 46.2951 2.88525 48 5.37705 48C6.42623 48 7.34426 47.7377 8.13115 47.2131L8.13115 47.2131L30.9508 34.2295L20.3279 22.9508L20.3279 22.9508Z" id="形状" fill="#EA4335" stroke="none" />
      <path d="M40.7869 19.2787L40.7869 19.2787L30.9508 13.6393L19.9344 23.3443L31.082 34.2295L40.918 28.7213C42.623 27.8033 43.8033 25.9672 43.8033 24C43.6721 22.0328 42.4918 20.1967 40.7869 19.2787L40.7869 19.2787Z" id="形状" fill="#FBBC04" stroke="none" />
      <path d="M0.131148 3.93443C0 4.32787 0 4.85246 0 5.37705L0 42.7541C0 43.2787 0 43.6721 0.131147 44.1967L21.1148 23.6066L0.131148 3.93443L0.131148 3.93443Z" id="形状" fill="#4285F4" stroke="none" />
      <path d="M20.459 24L30.9508 13.6393L8.2623 0.786885C7.47541 0.262295 6.42623 0 5.37705 0C2.88525 0 0.655738 1.70492 0.131148 3.93443C0.131148 3.93443 0.131148 3.93443 0.131148 3.93443L20.459 24L20.459 24Z" id="形状" fill="#34A853" stroke="none" />
    </g>
  </g>
</svg>